<?xml version="1.0" standalone="no"?>
<!DOCTYPE svg PUBLIC "-//W3C//DTD SVG 20010904//EN"
 "http://www.w3.org/TR/2001/REC-SVG-20010904/DTD/svg10.dtd">
<svg version="1.0" xmlns="http://www.w3.org/2000/svg"
 width="1563.000000pt" height="1563.000000pt" viewBox="0 0 1563.000000 1563.000000"
 preserveAspectRatio="xMidYMid meet">
<metadata>
Created by potrace 1.16, written by Peter Selinger 2001-2019
</metadata>
<g transform="translate(0.000000,1563.000000) scale(0.100000,-0.100000)"
fill="#000000" stroke="none">
<path d="M9190 10454 c-104 -13 -244 -37 -310 -54 -353 -90 -670 -264 -919
-505 -194 -187 -322 -358 -432 -577 -49 -99 -64 -120 -92 -132 -17 -7 -43 -26
-57 -41 -21 -22 -25 -37 -25 -87 0 -56 2 -62 37 -93 47 -44 95 -53 145 -29 74
37 102 116 67 190 l-17 35 57 113 c114 230 310 471 517 636 264 211 552 340
897 401 154 28 446 30 601 5 304 -49 619 -174 819 -324 l33 -25 -108 -109
c-59 -59 -111 -108 -116 -108 -5 0 -41 19 -80 43 -485 290 -1095 306 -1592 42
-150 -80 -267 -167 -390 -290 -133 -133 -226 -260 -305 -420 -235 -476 -235
-992 1 -1465 81 -164 161 -274 306 -419 73 -73 133 -136 133 -139 0 -9 -121
-221 -139 -243 -16 -20 -18 -19 -113 60 -53 44 -140 130 -193 191 -73 83 -103
110 -121 110 -28 0 -64 -32 -64 -58 0 -29 154 -207 264 -304 278 -245 582
-403 920 -479 294 -66 642 -66 922 1 212 50 460 147 480 189 15 30 4 62 -28
80 -22 13 -32 10 -116 -27 -428 -193 -955 -224 -1392 -80 -161 52 -444 191
-457 224 -2 7 41 92 96 188 56 96 101 179 101 184 0 5 -37 38 -83 75 -304 240
-506 600 -558 992 -12 93 -9 391 5 413 5 9 67 12 225 12 l217 0 24 76 c107
349 373 609 735 720 84 26 102 28 280 28 155 1 203 -2 260 -18 173 -46 300
-110 438 -222 44 -35 85 -64 93 -64 8 0 26 11 40 25 43 43 21 78 -111 177
-459 344 -1111 305 -1526 -89 -133 -126 -234 -274 -295 -430 l-28 -73 -158 0
c-128 0 -158 3 -158 14 0 25 41 147 77 229 165 375 483 671 873 812 222 80
509 105 744 65 220 -37 423 -117 603 -237 105 -70 262 -218 349 -329 35 -45
71 -84 79 -88 32 -12 85 27 85 62 0 24 -132 186 -228 280 l-106 103 153 153
153 153 -60 46 c-277 213 -586 349 -927 408 -116 20 -435 34 -525 23z"/>
<path d="M10740 8585 l0 -495 75 0 75 0 0 205 0 205 185 0 186 0 99 -205 99
-205 80 0 c45 0 81 2 81 5 0 3 -45 96 -101 206 -55 111 -99 202 -97 203 2 1
33 17 69 34 107 52 152 127 152 252 0 96 -29 166 -89 219 -76 67 -103 71 -480
71 l-334 0 0 -495z m687 336 c49 -23 73 -62 73 -121 0 -63 -26 -109 -74 -131
-36 -16 -69 -19 -288 -19 l-248 0 0 145 0 145 248 0 c221 0 251 -2 289 -19z"/>
<path d="M11940 8585 l0 -495 420 0 420 0 0 75 0 75 -350 0 -350 0 0 145 0
145 170 0 170 0 0 75 0 75 -170 0 -170 0 0 130 0 130 340 0 340 0 0 70 0 70
-410 0 -410 0 0 -495z"/>
<path d="M5493 8966 c-86 -20 -198 -81 -258 -141 -156 -157 -191 -415 -83
-617 63 -118 214 -227 356 -257 137 -29 334 -4 445 56 54 30 160 120 155 133
-2 4 -22 29 -46 54 l-42 46 -58 -47 c-73 -59 -138 -89 -231 -104 -135 -23
-290 19 -388 105 -92 80 -134 236 -98 362 33 115 97 188 212 242 53 24 69 27
173 27 112 0 117 -1 194 -38 43 -20 95 -51 116 -67 21 -17 44 -30 51 -30 8 1
36 20 62 44 l48 43 -53 42 c-162 130 -379 187 -555 147z"/>
<path d="M6730 8965 c-270 -61 -441 -309 -401 -582 30 -208 182 -372 396 -428
76 -19 240 -19 324 0 83 20 185 74 251 133 l53 48 -49 52 -49 53 -55 -46
c-141 -117 -319 -144 -505 -74 -69 26 -157 105 -193 173 -25 46 -27 61 -27
161 0 100 3 115 28 166 34 70 110 142 184 176 43 20 78 27 149 31 120 6 203
-18 313 -92 l79 -53 53 47 52 46 -49 42 c-58 50 -177 113 -254 136 -79 24
-221 29 -300 11z"/>
<path d="M2768 8455 l-226 -496 81 3 80 3 71 157 71 158 226 0 226 0 69 -160
69 -159 82 -1 83 0 -24 53 c-12 28 -112 251 -221 495 l-199 442 -81 0 -82 0
-225 -495z m396 120 l63 -140 -150 -3 c-82 -1 -152 0 -154 2 -4 4 108 261 140
321 9 18 11 18 24 -10 7 -17 42 -93 77 -170z"/>
<path d="M3820 8455 l0 -495 70 0 70 0 0 495 0 495 -70 0 -70 0 0 -495z"/>
<path d="M4327 8383 c-4 -3 -7 -39 -7 -80 l0 -73 235 0 235 0 0 80 0 80 -228
0 c-126 0 -232 -3 -235 -7z"/>
<path d="M8209 8257 c-84 -56 -83 -177 2 -225 21 -13 37 -37 59 -93 128 -316
412 -580 736 -682 149 -47 244 -60 409 -54 118 4 171 10 245 30 l95 25 120
-119 119 -118 -56 -25 c-83 -37 -214 -72 -335 -92 -86 -13 -147 -16 -300 -11
-173 5 -193 4 -207 -12 -33 -37 -13 -85 42 -101 107 -30 384 -22 567 16 200
41 445 149 615 270 121 86 308 274 384 385 52 79 62 87 96 93 144 23 157 226
17 264 -102 28 -196 -67 -167 -169 9 -31 7 -39 -35 -100 -116 -170 -293 -338
-458 -434 l-48 -28 -163 162 -162 161 -69 -23 c-114 -39 -201 -52 -345 -52
-143 1 -205 10 -335 52 -283 91 -528 316 -645 591 l-23 53 28 54 c21 42 26 63
21 89 -18 97 -128 146 -207 93z"/>
<path d="M3155 6065 c-143 -22 -242 -73 -295 -150 -28 -41 -45 -89 -74 -220
-8 -38 -38 -171 -66 -294 -32 -142 -49 -235 -45 -252 7 -32 41 -59 95 -78 48
-17 196 -24 250 -13 l45 10 -45 1 c-71 2 -159 27 -187 52 -48 46 -48 54 12
318 86 374 92 398 107 420 51 72 173 111 347 111 184 0 293 -61 292 -163 0
-23 -34 -190 -76 -372 -41 -181 -78 -340 -80 -352 -7 -30 0 -29 45 7 75 59
101 118 150 335 11 50 24 108 29 130 5 22 18 72 28 110 10 39 18 104 18 145 0
65 -4 81 -27 117 -80 123 -282 177 -523 138z"/>
<path d="M4180 5485 c0 -513 2 -585 15 -585 13 0 15 72 15 585 0 513 -2 585
-15 585 -13 0 -15 -72 -15 -585z"/>
<path d="M4640 5836 c0 -122 2 -136 23 -167 45 -67 146 -76 210 -19 l32 28 3
146 3 146 -30 0 -31 0 0 -124 c0 -110 -2 -126 -21 -150 -26 -33 -77 -36 -105
-5 -16 18 -19 40 -22 150 l-4 129 -29 0 -29 0 0 -134z"/>
<path d="M4997 5963 c-4 -3 -7 -82 -7 -175 l0 -168 35 0 35 0 0 121 0 122 30
-38 c16 -20 53 -74 82 -120 45 -72 57 -84 81 -85 l27 0 0 175 0 175 -30 0 -30
0 0 -116 0 -116 -55 77 c-86 119 -118 155 -141 155 -11 0 -24 -3 -27 -7z"/>
<path d="M5367 5964 c-4 -4 -7 -83 -7 -176 l0 -168 35 0 35 0 -2 173 -3 172
-25 3 c-14 2 -29 0 -33 -4z"/>
<path d="M5501 5883 c17 -47 47 -125 67 -172 36 -84 38 -86 71 -86 l34 0 58
145 c32 80 61 158 65 173 6 27 5 28 -26 25 -32 -3 -33 -5 -75 -126 -24 -68
-46 -126 -50 -130 -10 -10 -21 13 -65 140 l-42 118 -34 0 -33 0 30 -87z"/>
<path d="M5850 5795 l0 -175 120 0 120 0 0 25 c0 24 -2 24 -87 27 l-88 3 0 50
0 50 73 3 c69 3 73 4 70 25 -3 20 -9 22 -75 25 l-73 3 0 39 0 40 80 0 80 0 0
30 0 30 -110 0 -110 0 0 -175z"/>
<path d="M6153 5963 c-10 -3 -13 -48 -13 -174 l0 -169 35 0 35 0 0 66 0 65 28
-3 c21 -2 36 -17 67 -65 35 -55 44 -62 73 -63 17 0 32 4 32 8 0 5 -18 37 -40
71 l-40 62 30 25 c25 21 30 33 30 69 0 53 -28 91 -78 105 -38 10 -137 12 -159
3z"/>
<path d="M6488 5955 c-29 -16 -41 -44 -40 -88 1 -40 26 -64 99 -97 52 -24 63
-33 63 -52 0 -13 -5 -29 -12 -36 -15 -15 -92 -16 -120 -1 -23 13 -24 12 -33
-22 -6 -25 -4 -27 44 -39 68 -16 128 -5 163 30 57 57 28 125 -72 174 -66 32
-82 54 -60 81 14 17 72 20 101 5 16 -9 21 -7 31 15 6 14 8 28 4 32 -15 15
-140 14 -168 -2z"/>
<path d="M6737 5964 c-4 -4 -7 -83 -7 -176 l0 -168 35 0 35 0 -2 173 -3 172
-25 3 c-14 2 -29 0 -33 -4z"/>
<path d="M6850 5940 c0 -29 1 -30 50 -30 l50 0 0 -145 0 -145 35 0 35 0 0 145
0 145 50 0 c49 0 50 1 50 30 l0 30 -135 0 -135 0 0 -30z"/>
<path d="M7150 5929 c12 -22 39 -70 61 -105 36 -59 39 -70 39 -134 l0 -70 35
0 35 0 0 71 c0 67 2 74 55 164 30 51 55 98 55 104 0 6 -13 11 -30 11 -26 0
-33 -7 -59 -57 -55 -108 -53 -107 -101 -20 -40 73 -44 77 -76 77 l-34 0 20
-41z"/>
<path d="M7672 5954 c-59 -30 -77 -68 -77 -161 0 -97 15 -125 88 -162 116 -58
236 24 237 162 0 59 -18 103 -59 142 -27 25 -41 30 -94 32 -44 3 -72 -1 -95
-13z m127 -49 c39 -20 55 -63 52 -143 -1 -47 -48 -92 -94 -92 -101 0 -144 145
-67 222 32 31 66 36 109 13z"/>
<path d="M7990 5795 l0 -175 30 0 30 0 0 75 0 75 70 0 c68 0 70 1 70 25 0 23
-3 24 -67 27 l-68 3 -3 43 -3 42 80 0 81 0 0 30 0 30 -110 0 -110 0 0 -175z"/>
<path d="M8380 5795 l0 -175 30 0 30 0 0 122 c0 121 0 121 20 103 11 -10 51
-65 88 -121 58 -90 71 -104 95 -104 l27 0 0 175 0 175 -30 0 -29 0 -3 -116 -3
-116 -48 70 c-73 107 -125 162 -153 162 l-24 0 0 -175z"/>
<path d="M8750 5795 l0 -175 120 0 120 0 0 25 c0 24 -2 24 -87 27 l-88 3 0 50
0 50 73 3 c69 3 73 4 70 25 -3 20 -9 22 -75 25 l-73 3 0 39 0 40 80 0 80 0 0
30 0 30 -110 0 -110 0 0 -175z"/>
<path d="M9063 5963 c-10 -3 -13 -48 -13 -175 l0 -170 101 4 c99 3 101 3 130
36 16 18 29 43 29 57 0 35 -20 74 -42 81 -19 6 -19 6 1 28 43 46 18 117 -47
136 -38 10 -137 12 -159 3z"/>
<path d="M9383 5963 c-10 -3 -13 -48 -13 -174 l0 -169 35 0 35 0 0 66 0 65 28
-3 c21 -2 36 -17 67 -65 35 -55 44 -62 73 -63 17 0 32 4 32 8 0 5 -18 37 -40
71 l-40 62 30 25 c25 21 30 33 30 69 0 53 -28 91 -78 105 -38 10 -137 12 -159
3z"/>
<path d="M9760 5893 c-45 -108 -100 -253 -100 -264 0 -6 14 -9 32 -7 26 2 33
9 43 38 l12 35 75 3 75 3 13 -41 c12 -36 16 -40 47 -40 18 0 33 2 33 5 0 9
-109 283 -124 314 -13 24 -23 31 -45 31 -26 0 -31 -7 -61 -77z"/>
<path d="M10050 5942 c-59 -59 -31 -137 60 -167 44 -15 80 -45 80 -67 0 -33
-95 -52 -141 -28 -16 9 -21 7 -28 -12 -12 -29 7 -45 64 -53 89 -14 165 32 165
99 0 47 -25 75 -95 106 -34 15 -65 35 -68 44 -17 43 30 66 95 49 36 -10 39 -9
44 14 4 13 3 27 0 31 -4 3 -38 8 -76 10 -66 4 -71 3 -100 -26z"/>
<path d="M10310 5795 l0 -175 30 0 30 0 0 75 c0 73 1 75 20 65 12 -6 44 -40
73 -75 44 -55 57 -65 85 -65 17 0 32 3 32 6 0 12 -45 70 -96 124 l-53 55 69
75 c38 41 69 78 70 83 0 4 -14 7 -32 7 -26 0 -43 -12 -99 -72 l-68 -73 -1 73
0 72 -30 0 -30 0 0 -175z"/>
<path d="M10703 5903 c-17 -37 -47 -113 -68 -168 -20 -55 -39 -103 -42 -107
-2 -5 12 -8 31 -8 32 0 36 3 47 40 l12 40 74 0 75 0 15 -40 c14 -35 20 -40 49
-40 l33 0 -30 83 c-17 45 -47 123 -69 172 -34 82 -40 90 -67 93 -28 3 -32 -1
-60 -65z"/>
<path d="M3210 5915 c-8 -2 -33 -7 -55 -11 -35 -7 -29 -9 50 -14 137 -10 197
-48 197 -124 -1 -60 -140 -636 -162 -666 -48 -67 -191 -105 -370 -98 -91 4
-116 8 -163 32 -63 30 -97 75 -97 126 0 17 36 189 81 381 44 192 79 354 77
360 -5 15 -69 -36 -105 -84 -33 -42 -57 -109 -86 -242 -9 -38 -30 -128 -48
-200 -53 -221 -50 -289 14 -362 75 -85 184 -123 356 -123 238 1 398 67 463
193 22 44 168 664 168 715 0 44 -43 85 -107 102 -49 12 -186 22 -213 15z"/>
<path d="M4725 5370 c-58 -24 -95 -90 -95 -170 0 -135 122 -216 237 -159 69
35 87 66 91 152 2 60 -1 78 -20 111 -13 21 -39 47 -58 57 -36 20 -119 25 -155
9z m136 -66 c11 -10 24 -34 30 -55 34 -113 -70 -215 -154 -149 -65 51 -55 190
16 220 30 13 85 5 108 -16z"/>
<path d="M5045 5323 c-3 -32 -9 -111 -13 -175 l-7 -118 32 0 33 0 1 93 c1 50
4 105 8 120 5 26 10 19 47 -65 37 -85 43 -93 67 -93 25 0 32 8 70 95 l42 95 6
-60 c4 -33 7 -88 8 -122 l1 -63 31 0 32 0 -7 118 c-4 64 -11 142 -14 172 -6
51 -9 55 -35 58 -26 3 -30 -2 -81 -110 -50 -104 -55 -111 -64 -88 -5 14 -28
64 -50 113 -38 81 -43 87 -70 87 -29 0 -30 -2 -37 -57z"/>
<path d="M5540 5303 c-45 -108 -100 -253 -100 -264 0 -6 14 -9 32 -7 26 2 33
9 43 38 l12 35 75 3 75 3 13 -41 c12 -36 16 -40 47 -40 18 0 33 2 33 5 0 9
-109 283 -124 314 -13 24 -23 31 -45 31 -26 0 -31 -7 -61 -77z"/>
<path d="M5820 5205 l0 -175 30 0 30 0 0 75 0 75 75 0 75 0 0 -75 0 -75 30 0
30 0 0 175 0 175 -30 0 -30 0 0 -70 0 -70 -75 0 -75 0 0 70 0 70 -30 0 -30 0
0 -175z"/>
<path d="M6248 5313 c-29 -64 -108 -267 -108 -278 0 -3 14 -5 31 -5 26 0 33 5
46 40 l16 40 73 0 73 0 12 -40 c11 -36 15 -40 46 -40 18 0 33 3 33 8 0 20
-116 307 -133 330 -5 6 -20 12 -34 12 -20 0 -29 -11 -55 -67z"/>
</g>
</svg>
